# xmcd CD database file
# Copyright (C) 1993-1998 Ti Kan
# 
# Track frame offsets:
#     183
#     11258
#     24010
#     34575
#     45853
#     56383
#     67665
#     81693
#     93020
#     102683
#     114375
#     124995
#     136733
#     147720
#     160650
#     169725
#     182633
#     193073
# 
# Disc length: 2724 seconds
# 
# Revision: 1
# Processed by: cddbd v1.4b41PL1 Copyright (c) Steve Scherf et al.
# Submitted via: DiscPlay 4.0.4
# 
DISCID=e10aa212
DTITLE=Jim Reeves - Welcome to my World Disc 1
DYEAR=1900
DGENRE=
TTITLE0=Make the World go Away
TTITLE1=I Can't Stop loving You
TTITLE2=The Wreck of the Number Nine
TTITLE3=Moonlight and Roses
TTITLE4=It's Only a Paper Moon
TTITLE5=Am I That Easy to Forget
TTITLE6=I Fall to Pieces
TTITLE7=I'm a Fool to Care
TTITLE8=The Storm
TTITLE9=Welcome to my World
TTITLE10=Scarlet Ribbons
TTITLE11=Missing You
TTITLE12=How Can I Write On Paper
TTITLE13=Golden Memories and Silver Tears
TTITLE14=I'm crying Again
TTITLE15=Four Walls
TTITLE16=Am I Losing You ?
TTITLE17=Anna Marie
EXTD=
EXTT0=
EXTT1=
EXTT2=
EXTT3=
EXTT4=
EXTT5=
EXTT6=
EXTT7=
EXTT8=
EXTT9=
EXTT10=
EXTT11=
EXTT12=
EXTT13=
EXTT14=
EXTT15=
EXTT16=
EXTT17=
PLAYORDER=
